<mxfile host="Electron" modified="2025-08-25T10:11:17.080Z" agent="Mozilla/5.0 (Macintosh; Intel Mac OS X 10_15_7) AppleWebKit/537.36 (KHTML, like Gecko) draw.io/24.6.4 Chrome/124.0.6367.207 Electron/30.0.6 Safari/537.36" etag="IsEQKNH3JSJmvAQRIRiH" border="50" scale="3" compressed="false" locked="false" version="24.6.4" type="device">
  <diagram name="Blank" id="YmL12bMKpDGza6XwsDPr">
    <mxGraphModel dx="2486" dy="1894" grid="0" gridSize="10" guides="1" tooltips="1" connect="1" arrows="1" fold="1" page="0" pageScale="1" pageWidth="827" pageHeight="1169" background="none" math="1" shadow="0">
      <root>
        <mxCell id="X5NqExCQtvZxIxQ7pmgY-0" />
        <mxCell id="1" parent="X5NqExCQtvZxIxQ7pmgY-0" />
        <mxCell id="_yiDeYU9gXm-hQrSFv3a-10" style="edgeStyle=orthogonalEdgeStyle;rounded=0;orthogonalLoop=1;jettySize=auto;html=1;entryX=0.5;entryY=0;entryDx=0;entryDy=0;" edge="1" parent="1" source="_yiDeYU9gXm-hQrSFv3a-1" target="_yiDeYU9gXm-hQrSFv3a-9">
          <mxGeometry relative="1" as="geometry" />
        </mxCell>
        <mxCell id="_yiDeYU9gXm-hQrSFv3a-15" value="js" style="edgeLabel;html=1;align=center;verticalAlign=middle;resizable=0;points=[];" vertex="1" connectable="0" parent="_yiDeYU9gXm-hQrSFv3a-10">
          <mxGeometry x="0.4251" y="2" relative="1" as="geometry">
            <mxPoint as="offset" />
          </mxGeometry>
        </mxCell>
        <mxCell id="_yiDeYU9gXm-hQrSFv3a-55" value="" style="edgeStyle=orthogonalEdgeStyle;rounded=0;orthogonalLoop=1;jettySize=auto;html=1;" edge="1" parent="1" source="_yiDeYU9gXm-hQrSFv3a-1" target="_yiDeYU9gXm-hQrSFv3a-54">
          <mxGeometry relative="1" as="geometry" />
        </mxCell>
        <mxCell id="_yiDeYU9gXm-hQrSFv3a-62" value="JavaScript" style="edgeLabel;html=1;align=center;verticalAlign=middle;resizable=0;points=[];" vertex="1" connectable="0" parent="_yiDeYU9gXm-hQrSFv3a-55">
          <mxGeometry x="0.352" y="1" relative="1" as="geometry">
            <mxPoint as="offset" />
          </mxGeometry>
        </mxCell>
        <mxCell id="_yiDeYU9gXm-hQrSFv3a-1" value="&lt;font style=&quot;font-size: 20px;&quot;&gt;JavaScript&lt;/font&gt;&lt;div&gt;&lt;span style=&quot;font-size: 20px;&quot;&gt;Programmiersprache&lt;/span&gt;&lt;/div&gt;&lt;div&gt;&lt;span style=&quot;font-size: 20px;&quot;&gt;(prozedural)&lt;/span&gt;&lt;/div&gt;&lt;div&gt;&lt;span style=&quot;font-size: 20px;&quot;&gt;&lt;br&gt;&lt;/span&gt;&lt;/div&gt;&lt;div&gt;&lt;span style=&quot;font-size: 20px;&quot;&gt;Browser&amp;nbsp;&lt;/span&gt;&lt;/div&gt;" style="rounded=0;whiteSpace=wrap;html=1;" vertex="1" parent="1">
          <mxGeometry x="-174" y="58" width="343" height="180" as="geometry" />
        </mxCell>
        <mxCell id="_yiDeYU9gXm-hQrSFv3a-7" style="edgeStyle=orthogonalEdgeStyle;rounded=0;orthogonalLoop=1;jettySize=auto;html=1;" edge="1" parent="1" source="_yiDeYU9gXm-hQrSFv3a-5" target="_yiDeYU9gXm-hQrSFv3a-6">
          <mxGeometry relative="1" as="geometry" />
        </mxCell>
        <mxCell id="_yiDeYU9gXm-hQrSFv3a-5" value=".js" style="shape=note;whiteSpace=wrap;html=1;backgroundOutline=1;darkOpacity=0.05;" vertex="1" parent="1">
          <mxGeometry x="395" y="98" width="80" height="100" as="geometry" />
        </mxCell>
        <mxCell id="_yiDeYU9gXm-hQrSFv3a-6" value="" style="verticalLabelPosition=bottom;html=1;verticalAlign=top;align=center;strokeColor=none;fillColor=#00BEF2;shape=mxgraph.azure.computer;pointerEvents=1;" vertex="1" parent="1">
          <mxGeometry x="395" y="233" width="50" height="45" as="geometry" />
        </mxCell>
        <mxCell id="_yiDeYU9gXm-hQrSFv3a-8" style="edgeStyle=orthogonalEdgeStyle;rounded=0;orthogonalLoop=1;jettySize=auto;html=1;entryX=0;entryY=0.5;entryDx=0;entryDy=0;entryPerimeter=0;" edge="1" parent="1" source="_yiDeYU9gXm-hQrSFv3a-1" target="_yiDeYU9gXm-hQrSFv3a-5">
          <mxGeometry relative="1" as="geometry" />
        </mxCell>
        <mxCell id="_yiDeYU9gXm-hQrSFv3a-9" value="node.JS" style="rounded=0;whiteSpace=wrap;html=1;" vertex="1" parent="1">
          <mxGeometry x="-710" y="285" width="120" height="60" as="geometry" />
        </mxCell>
        <mxCell id="_yiDeYU9gXm-hQrSFv3a-16" value="Actor" style="shape=umlActor;verticalLabelPosition=bottom;verticalAlign=top;html=1;outlineConnect=0;" vertex="1" parent="1">
          <mxGeometry x="483" y="251" width="30" height="60" as="geometry" />
        </mxCell>
        <mxCell id="_yiDeYU9gXm-hQrSFv3a-17" value="javascript" style="rounded=0;whiteSpace=wrap;html=1;" vertex="1" parent="1">
          <mxGeometry x="-280" y="-193.5" width="120" height="60" as="geometry" />
        </mxCell>
        <mxCell id="_yiDeYU9gXm-hQrSFv3a-24" style="edgeStyle=orthogonalEdgeStyle;rounded=0;orthogonalLoop=1;jettySize=auto;html=1;" edge="1" parent="1" source="_yiDeYU9gXm-hQrSFv3a-18" target="_yiDeYU9gXm-hQrSFv3a-23">
          <mxGeometry relative="1" as="geometry" />
        </mxCell>
        <mxCell id="_yiDeYU9gXm-hQrSFv3a-18" value="php" style="rounded=0;whiteSpace=wrap;html=1;" vertex="1" parent="1">
          <mxGeometry x="-247.5" y="-666" width="120" height="60" as="geometry" />
        </mxCell>
        <mxCell id="_yiDeYU9gXm-hQrSFv3a-22" style="edgeStyle=orthogonalEdgeStyle;rounded=0;orthogonalLoop=1;jettySize=auto;html=1;entryX=1;entryY=0.5;entryDx=0;entryDy=0;entryPerimeter=0;" edge="1" parent="1" source="_yiDeYU9gXm-hQrSFv3a-19" target="_yiDeYU9gXm-hQrSFv3a-19">
          <mxGeometry relative="1" as="geometry">
            <mxPoint x="168" y="-163.5" as="targetPoint" />
          </mxGeometry>
        </mxCell>
        <mxCell id="_yiDeYU9gXm-hQrSFv3a-19" value="" style="verticalLabelPosition=bottom;html=1;verticalAlign=top;align=center;strokeColor=none;fillColor=#00BEF2;shape=mxgraph.azure.computer;pointerEvents=1;" vertex="1" parent="1">
          <mxGeometry x="1" y="-186" width="50" height="45" as="geometry" />
        </mxCell>
        <mxCell id="_yiDeYU9gXm-hQrSFv3a-20" style="edgeStyle=orthogonalEdgeStyle;rounded=0;orthogonalLoop=1;jettySize=auto;html=1;entryX=0;entryY=0.5;entryDx=0;entryDy=0;entryPerimeter=0;" edge="1" parent="1" source="_yiDeYU9gXm-hQrSFv3a-31" target="_yiDeYU9gXm-hQrSFv3a-19">
          <mxGeometry relative="1" as="geometry" />
        </mxCell>
        <mxCell id="_yiDeYU9gXm-hQrSFv3a-23" value="" style="image;html=1;image=img/lib/clip_art/computers/Server_128x128.png" vertex="1" parent="1">
          <mxGeometry x="16.5" y="-676" width="80" height="80" as="geometry" />
        </mxCell>
        <mxCell id="_yiDeYU9gXm-hQrSFv3a-25" style="edgeStyle=orthogonalEdgeStyle;rounded=0;orthogonalLoop=1;jettySize=auto;html=1;entryX=1;entryY=0.25;entryDx=0;entryDy=0;" edge="1" parent="1" source="_yiDeYU9gXm-hQrSFv3a-23" target="_yiDeYU9gXm-hQrSFv3a-23">
          <mxGeometry relative="1" as="geometry" />
        </mxCell>
        <mxCell id="_yiDeYU9gXm-hQrSFv3a-26" value="Actor" style="shape=umlActor;verticalLabelPosition=bottom;verticalAlign=top;html=1;outlineConnect=0;" vertex="1" parent="1">
          <mxGeometry x="179" y="-204.5" width="30" height="60" as="geometry" />
        </mxCell>
        <mxCell id="_yiDeYU9gXm-hQrSFv3a-28" value="Actor" style="shape=umlActor;verticalLabelPosition=bottom;verticalAlign=top;html=1;outlineConnect=0;" vertex="1" parent="1">
          <mxGeometry x="340.5" y="-692" width="30" height="60" as="geometry" />
        </mxCell>
        <mxCell id="_yiDeYU9gXm-hQrSFv3a-30" style="edgeStyle=orthogonalEdgeStyle;rounded=0;orthogonalLoop=1;jettySize=auto;html=1;" edge="1" parent="1" source="_yiDeYU9gXm-hQrSFv3a-37" target="_yiDeYU9gXm-hQrSFv3a-23">
          <mxGeometry relative="1" as="geometry" />
        </mxCell>
        <mxCell id="_yiDeYU9gXm-hQrSFv3a-29" value="" style="verticalLabelPosition=bottom;html=1;verticalAlign=top;align=center;strokeColor=none;fillColor=#00BEF2;shape=mxgraph.azure.computer;pointerEvents=1;" vertex="1" parent="1">
          <mxGeometry x="248.5" y="-673" width="50" height="45" as="geometry" />
        </mxCell>
        <mxCell id="_yiDeYU9gXm-hQrSFv3a-32" value="" style="edgeStyle=orthogonalEdgeStyle;rounded=0;orthogonalLoop=1;jettySize=auto;html=1;entryX=0;entryY=0.5;entryDx=0;entryDy=0;entryPerimeter=0;" edge="1" parent="1" source="_yiDeYU9gXm-hQrSFv3a-17" target="_yiDeYU9gXm-hQrSFv3a-31">
          <mxGeometry relative="1" as="geometry">
            <mxPoint x="-160" y="-163.5" as="sourcePoint" />
            <mxPoint x="1" y="-163.5" as="targetPoint" />
          </mxGeometry>
        </mxCell>
        <mxCell id="_yiDeYU9gXm-hQrSFv3a-31" value="CDN" style="shape=cylinder3;whiteSpace=wrap;html=1;boundedLbl=1;backgroundOutline=1;size=15;" vertex="1" parent="1">
          <mxGeometry x="-99" y="-203.5" width="60" height="80" as="geometry" />
        </mxCell>
        <mxCell id="_yiDeYU9gXm-hQrSFv3a-36" style="edgeStyle=orthogonalEdgeStyle;rounded=0;orthogonalLoop=1;jettySize=auto;html=1;entryX=0.75;entryY=1;entryDx=0;entryDy=0;" edge="1" parent="1" source="_yiDeYU9gXm-hQrSFv3a-33" target="_yiDeYU9gXm-hQrSFv3a-23">
          <mxGeometry relative="1" as="geometry" />
        </mxCell>
        <mxCell id="_yiDeYU9gXm-hQrSFv3a-33" value="CMS" style="shape=cylinder3;whiteSpace=wrap;html=1;boundedLbl=1;backgroundOutline=1;size=15;" vertex="1" parent="1">
          <mxGeometry x="-58.5" y="-581" width="60" height="80" as="geometry" />
        </mxCell>
        <mxCell id="_yiDeYU9gXm-hQrSFv3a-35" style="edgeStyle=orthogonalEdgeStyle;rounded=0;orthogonalLoop=1;jettySize=auto;html=1;" edge="1" parent="1" source="_yiDeYU9gXm-hQrSFv3a-34" target="_yiDeYU9gXm-hQrSFv3a-33">
          <mxGeometry relative="1" as="geometry" />
        </mxCell>
        <mxCell id="_yiDeYU9gXm-hQrSFv3a-34" value="Actor" style="shape=umlActor;verticalLabelPosition=bottom;verticalAlign=top;html=1;outlineConnect=0;" vertex="1" parent="1">
          <mxGeometry x="-304.5" y="-564" width="30" height="60" as="geometry" />
        </mxCell>
        <mxCell id="_yiDeYU9gXm-hQrSFv3a-38" value="" style="edgeStyle=orthogonalEdgeStyle;rounded=0;orthogonalLoop=1;jettySize=auto;html=1;" edge="1" parent="1" source="_yiDeYU9gXm-hQrSFv3a-29" target="_yiDeYU9gXm-hQrSFv3a-37">
          <mxGeometry relative="1" as="geometry">
            <mxPoint x="248.5" y="-650" as="sourcePoint" />
            <mxPoint x="96.5" y="-636" as="targetPoint" />
          </mxGeometry>
        </mxCell>
        <mxCell id="_yiDeYU9gXm-hQrSFv3a-37" value="CDN" style="shape=cylinder3;whiteSpace=wrap;html=1;boundedLbl=1;backgroundOutline=1;size=15;" vertex="1" parent="1">
          <mxGeometry x="160.5" y="-690.5" width="60" height="80" as="geometry" />
        </mxCell>
        <mxCell id="_yiDeYU9gXm-hQrSFv3a-41" style="edgeStyle=orthogonalEdgeStyle;rounded=0;orthogonalLoop=1;jettySize=auto;html=1;entryX=0.5;entryY=1;entryDx=0;entryDy=0;entryPerimeter=0;" edge="1" parent="1" source="_yiDeYU9gXm-hQrSFv3a-26" target="_yiDeYU9gXm-hQrSFv3a-19">
          <mxGeometry relative="1" as="geometry" />
        </mxCell>
        <mxCell id="_yiDeYU9gXm-hQrSFv3a-42" value="javascript" style="rounded=0;whiteSpace=wrap;html=1;" vertex="1" parent="1">
          <mxGeometry x="-1041" y="378.5" width="120" height="60" as="geometry" />
        </mxCell>
        <mxCell id="_yiDeYU9gXm-hQrSFv3a-43" style="edgeStyle=orthogonalEdgeStyle;rounded=0;orthogonalLoop=1;jettySize=auto;html=1;entryX=1;entryY=0.5;entryDx=0;entryDy=0;entryPerimeter=0;" edge="1" parent="1" source="_yiDeYU9gXm-hQrSFv3a-44" target="_yiDeYU9gXm-hQrSFv3a-44">
          <mxGeometry relative="1" as="geometry">
            <mxPoint x="-593" y="408.5" as="targetPoint" />
          </mxGeometry>
        </mxCell>
        <mxCell id="_yiDeYU9gXm-hQrSFv3a-44" value="" style="verticalLabelPosition=bottom;html=1;verticalAlign=top;align=center;strokeColor=none;fillColor=#00BEF2;shape=mxgraph.azure.computer;pointerEvents=1;" vertex="1" parent="1">
          <mxGeometry x="-760" y="386" width="50" height="45" as="geometry" />
        </mxCell>
        <mxCell id="_yiDeYU9gXm-hQrSFv3a-45" style="edgeStyle=orthogonalEdgeStyle;rounded=0;orthogonalLoop=1;jettySize=auto;html=1;entryX=0;entryY=0.5;entryDx=0;entryDy=0;entryPerimeter=0;" edge="1" parent="1" source="_yiDeYU9gXm-hQrSFv3a-49" target="_yiDeYU9gXm-hQrSFv3a-44">
          <mxGeometry relative="1" as="geometry" />
        </mxCell>
        <mxCell id="_yiDeYU9gXm-hQrSFv3a-46" value="Actor" style="shape=umlActor;verticalLabelPosition=bottom;verticalAlign=top;html=1;outlineConnect=0;" vertex="1" parent="1">
          <mxGeometry x="-582" y="367.5" width="30" height="60" as="geometry" />
        </mxCell>
        <mxCell id="_yiDeYU9gXm-hQrSFv3a-47" style="edgeStyle=orthogonalEdgeStyle;rounded=0;orthogonalLoop=1;jettySize=auto;html=1;" edge="1" parent="1" source="_yiDeYU9gXm-hQrSFv3a-46" target="_yiDeYU9gXm-hQrSFv3a-50">
          <mxGeometry relative="1" as="geometry">
            <Array as="points">
              <mxPoint x="-567" y="452" />
              <mxPoint x="-738" y="452" />
            </Array>
          </mxGeometry>
        </mxCell>
        <mxCell id="_yiDeYU9gXm-hQrSFv3a-48" value="" style="edgeStyle=orthogonalEdgeStyle;rounded=0;orthogonalLoop=1;jettySize=auto;html=1;entryX=0;entryY=0.5;entryDx=0;entryDy=0;entryPerimeter=0;" edge="1" parent="1" source="_yiDeYU9gXm-hQrSFv3a-42" target="_yiDeYU9gXm-hQrSFv3a-49">
          <mxGeometry relative="1" as="geometry">
            <mxPoint x="-921" y="408.5" as="sourcePoint" />
            <mxPoint x="-760" y="408.5" as="targetPoint" />
          </mxGeometry>
        </mxCell>
        <mxCell id="_yiDeYU9gXm-hQrSFv3a-49" value="CDN" style="shape=cylinder3;whiteSpace=wrap;html=1;boundedLbl=1;backgroundOutline=1;size=15;" vertex="1" parent="1">
          <mxGeometry x="-860" y="368.5" width="60" height="80" as="geometry" />
        </mxCell>
        <mxCell id="_yiDeYU9gXm-hQrSFv3a-50" value="" style="image;html=1;image=img/lib/clip_art/computers/Server_128x128.png" vertex="1" parent="1">
          <mxGeometry x="-778" y="499" width="80" height="80" as="geometry" />
        </mxCell>
        <mxCell id="_yiDeYU9gXm-hQrSFv3a-51" style="edgeStyle=orthogonalEdgeStyle;rounded=0;orthogonalLoop=1;jettySize=auto;html=1;exitX=0.5;exitY=0;exitDx=0;exitDy=0;entryX=1;entryY=0.25;entryDx=0;entryDy=0;" edge="1" parent="1" source="_yiDeYU9gXm-hQrSFv3a-50" target="_yiDeYU9gXm-hQrSFv3a-50">
          <mxGeometry relative="1" as="geometry" />
        </mxCell>
        <mxCell id="_yiDeYU9gXm-hQrSFv3a-52" style="edgeStyle=orthogonalEdgeStyle;rounded=0;orthogonalLoop=1;jettySize=auto;html=1;entryX=0.5;entryY=1;entryDx=0;entryDy=0;entryPerimeter=0;" edge="1" parent="1" source="_yiDeYU9gXm-hQrSFv3a-46" target="_yiDeYU9gXm-hQrSFv3a-44">
          <mxGeometry relative="1" as="geometry" />
        </mxCell>
        <mxCell id="_yiDeYU9gXm-hQrSFv3a-54" value="&lt;div&gt;Document Object Model&lt;/div&gt;" style="whiteSpace=wrap;html=1;rounded=0;" vertex="1" parent="1">
          <mxGeometry x="-137.75" y="461.5" width="270.5" height="230" as="geometry" />
        </mxCell>
        <mxCell id="_yiDeYU9gXm-hQrSFv3a-56" value="HTML" style="rounded=0;whiteSpace=wrap;html=1;" vertex="1" parent="1">
          <mxGeometry x="-148" y="477" width="120" height="60" as="geometry" />
        </mxCell>
        <mxCell id="_yiDeYU9gXm-hQrSFv3a-57" value="Actor" style="shape=umlActor;verticalLabelPosition=bottom;verticalAlign=top;html=1;outlineConnect=0;" vertex="1" parent="1">
          <mxGeometry x="465" y="539" width="30" height="60" as="geometry" />
        </mxCell>
        <mxCell id="_yiDeYU9gXm-hQrSFv3a-58" value="" style="verticalLabelPosition=bottom;html=1;verticalAlign=top;align=center;strokeColor=none;fillColor=#00BEF2;shape=mxgraph.azure.computer;pointerEvents=1;" vertex="1" parent="1">
          <mxGeometry x="379" y="554" width="50" height="45" as="geometry" />
        </mxCell>
        <mxCell id="_yiDeYU9gXm-hQrSFv3a-61" style="edgeStyle=orthogonalEdgeStyle;rounded=0;orthogonalLoop=1;jettySize=auto;html=1;" edge="1" parent="1" source="_yiDeYU9gXm-hQrSFv3a-60" target="_yiDeYU9gXm-hQrSFv3a-56">
          <mxGeometry relative="1" as="geometry" />
        </mxCell>
        <mxCell id="_yiDeYU9gXm-hQrSFv3a-60" value="Plain Text Code" style="rounded=0;whiteSpace=wrap;html=1;" vertex="1" parent="1">
          <mxGeometry x="-406" y="489" width="120" height="60" as="geometry" />
        </mxCell>
        <mxCell id="_yiDeYU9gXm-hQrSFv3a-63" value="JavaScript" style="shape=note;whiteSpace=wrap;html=1;backgroundOutline=1;darkOpacity=0.05;" vertex="1" parent="1">
          <mxGeometry x="-39" y="465" width="80" height="100" as="geometry" />
        </mxCell>
        <mxCell id="_yiDeYU9gXm-hQrSFv3a-65" style="edgeStyle=orthogonalEdgeStyle;rounded=0;orthogonalLoop=1;jettySize=auto;html=1;entryX=0;entryY=0;entryDx=80;entryDy=65;entryPerimeter=0;" edge="1" parent="1" source="_yiDeYU9gXm-hQrSFv3a-58" target="_yiDeYU9gXm-hQrSFv3a-63">
          <mxGeometry relative="1" as="geometry" />
        </mxCell>
        <mxCell id="_yiDeYU9gXm-hQrSFv3a-66" style="edgeStyle=orthogonalEdgeStyle;rounded=0;orthogonalLoop=1;jettySize=auto;html=1;entryX=0.5;entryY=0;entryDx=0;entryDy=0;entryPerimeter=0;" edge="1" parent="1" source="_yiDeYU9gXm-hQrSFv3a-63" target="_yiDeYU9gXm-hQrSFv3a-58">
          <mxGeometry relative="1" as="geometry" />
        </mxCell>
        <mxCell id="_yiDeYU9gXm-hQrSFv3a-68" value="&lt;font style=&quot;font-size: 20px;&quot;&gt;JavaScript&lt;/font&gt;&lt;div style=&quot;font-size: 20px;&quot;&gt;&lt;br&gt;&lt;div&gt;+ Text-Datei&lt;/div&gt;&lt;div&gt;+ Browser&lt;/div&gt;&lt;div&gt;+ HTML&lt;/div&gt;&lt;div&gt;&lt;br&gt;&lt;/div&gt;&lt;div&gt;&lt;br&gt;&lt;/div&gt;&lt;div&gt;&lt;br&gt;&lt;/div&gt;&lt;div&gt;&lt;br&gt;&lt;/div&gt;&lt;div&gt;&lt;br&gt;&lt;/div&gt;&lt;/div&gt;" style="text;html=1;align=left;verticalAlign=top;whiteSpace=wrap;rounded=0;horizontal=1;" vertex="1" parent="1">
          <mxGeometry x="-259" y="830" width="281" height="143" as="geometry" />
        </mxCell>
        <mxCell id="_yiDeYU9gXm-hQrSFv3a-69" value="" style="strokeWidth=1;shadow=0;dashed=0;align=center;html=1;shape=mxgraph.mockup.containers.browserWindow;rSize=0;strokeColor=#666666;strokeColor2=#008cff;strokeColor3=#c4c4c4;mainText=,;recursiveResize=0;" vertex="1" parent="1">
          <mxGeometry x="51" y="716" width="550" height="380" as="geometry" />
        </mxCell>
        <mxCell id="_yiDeYU9gXm-hQrSFv3a-70" value="Page 1" style="strokeWidth=1;shadow=0;dashed=0;align=center;html=1;shape=mxgraph.mockup.containers.anchor;fontSize=17;fontColor=#666666;align=left;whiteSpace=wrap;" vertex="1" parent="_yiDeYU9gXm-hQrSFv3a-69">
          <mxGeometry x="60" y="12" width="110" height="26" as="geometry" />
        </mxCell>
        <mxCell id="_yiDeYU9gXm-hQrSFv3a-71" value="console" style="strokeWidth=1;shadow=0;dashed=0;align=center;html=1;shape=mxgraph.mockup.containers.anchor;rSize=0;fontSize=17;fontColor=#666666;align=left;" vertex="1" parent="_yiDeYU9gXm-hQrSFv3a-69">
          <mxGeometry x="130" y="60" width="250" height="26" as="geometry" />
        </mxCell>
        <mxCell id="_yiDeYU9gXm-hQrSFv3a-72" value="&lt;div&gt;for&lt;/div&gt;&lt;div&gt;forEach&lt;/div&gt;&lt;div&gt;&lt;br&gt;&lt;/div&gt;&lt;div&gt;while&lt;/div&gt;&lt;div&gt;&lt;br&gt;&lt;/div&gt;&lt;div&gt;&lt;br&gt;&lt;/div&gt;const&lt;div&gt;let&lt;/div&gt;&lt;div&gt;array[]&lt;/div&gt;&lt;div&gt;&lt;br&gt;&lt;/div&gt;&lt;div&gt;strings&amp;nbsp;&lt;/div&gt;&lt;div&gt;numbers&lt;/div&gt;&lt;div&gt;&lt;br&gt;&lt;/div&gt;&lt;div&gt;function&lt;/div&gt;" style="text;html=1;align=left;verticalAlign=middle;whiteSpace=wrap;rounded=0;" vertex="1" parent="_yiDeYU9gXm-hQrSFv3a-69">
          <mxGeometry x="33" y="139" width="217" height="207" as="geometry" />
        </mxCell>
      </root>
    </mxGraphModel>
  </diagram>
</mxfile>
